# xmcd CD database file
# Copyright (C) 1997 Ti Kan
# 
# Track frame offsets:
#     150
#     24495
#     32683
#     50670
#     64554
#     88280
#     102519
#     120983
#     132233
#     143633
#     156757
#     166624
#     179146
#     208186
#     234940
#     242579
# 
# Disc length: 3276 seconds
# 
# Revision: 1
# Processed by: cddbd v1.4b41PL1 Copyright (c) Steve Scherf et al.
# Submitted via: DiscPlay 4.0.3
# 
DISCID=d60cca10
DTITLE=Rick Good - Rick Good novatown
DYEAR=1900
DGENRE=
TTITLE0=Nova Town
TTITLE1=Saturday Night
TTITLE2=Hasbeens
TTITLE3=Funny Blues
TTITLE4=Pocket Watch
TTITLE5=Long Shot on a Fat Chance
TTITLE6=Nothin' Wrong with Neon
TTITLE7=Smooth Move
TTITLE8=I Never Could Keep a Secret
TTITLE9=Once Bitten
TTITLE10=That's That
TTITLE11=We Didn't Give Up
TTITLE12=Dream Come Untrue
TTITLE13=Don't Look Back
TTITLE14=Saturday Night, Sunday Morning
TTITLE15=Nova Town (reprise)
EXTD=
EXTT0=
EXTT1=
EXTT2=
EXTT3=
EXTT4=
EXTT5=
EXTT6=
EXTT7=
EXTT8=
EXTT9=
EXTT10=
EXTT11=
EXTT12=
EXTT13=
EXTT14=
EXTT15=
PLAYORDER=
